<svg width="1200" height="1200" viewBox="0 0 1200 1200" fill="none" xmlns="http://www.w3.org/2000/svg">
<path d="M1105.5 499.5H976.053L980.014 136.308C1114.01 246.254 1199.5 413.143 1199.5 600C1199.5 791.556 1109.66 962.128 969.812 1071.88L973.911 696H1105.5H1106V695.5V500V499.5H1105.5ZM600 0.5C667.866 0.5 733.097 11.7768 793.923 32.5584L189.693 503.606L189.5 503.756V504V699.5V700.004L190.004 700L705 696.004V1100.5V1101H705.5H929.362C834.841 1163.27 721.653 1199.5 600 1199.5C268.905 1199.5 0.5 931.095 0.5 600C0.5 268.905 268.905 0.5 600 0.5ZM742.004 477.561L742.996 477.563L776.127 218.243L887.782 114.846L806.573 631H679.902L617.551 348.674L715.122 259.522L742.004 477.561ZM558.529 396.239L616.5 349.545V631H563.588L561.161 614.435L560.989 613.263L560.269 614.204C557.831 617.392 552.631 620.077 545.82 622.29C539.039 624.494 530.768 626.198 522.308 627.49C505.391 630.074 487.788 631 480 631C470.591 631 451.373 630.366 433.136 627.928C424.017 626.709 415.16 625.042 407.903 622.783C400.618 620.515 395.054 617.684 392.397 614.205C381.428 599.837 373.538 579.445 380.479 556.143C387.924 531.151 397.942 520.796 413.736 504.475L413.859 504.348L413.881 504.325L413.9 504.3C416.541 500.778 421.35 497.358 427.445 494.206C433.527 491.061 440.838 488.21 448.428 485.807C463.619 480.996 479.854 478 489.5 478C491.021 478 492.891 477.979 495.026 477.954C503.936 477.852 517.506 477.698 529.923 478.808C536.133 479.363 542.036 480.233 546.914 481.577C551.813 482.926 555.594 484.732 557.651 487.101L558.529 488.111V486.773V396.239ZM534.656 596.84L534.705 596.833L534.751 596.818C536.953 596.077 538.862 595.483 540.562 594.955C541.35 594.71 542.094 594.478 542.801 594.253C545.023 593.544 546.879 592.894 548.571 592.056C551.982 590.367 554.671 587.942 558.431 582.872C560.368 580.26 561.63 576.466 562.265 572.048C562.901 567.62 562.912 562.523 562.313 557.265C561.115 546.76 557.468 535.538 551.395 527.694C545.301 519.822 537.545 516.211 528.498 515.108C519.477 514.007 509.16 515.397 497.908 517.509C486.598 519.631 474.545 524.278 464.749 529.964C459.85 532.807 455.505 535.917 452.096 539.112C448.692 542.301 446.192 545.601 445.03 548.831C442.768 555.112 441.612 560.287 441.605 565.557C441.598 570.826 442.741 576.153 445.028 582.738L445.051 582.806L445.093 582.864C452.071 592.651 458.286 597.099 465.952 599.063C472.185 600.659 479.368 600.604 488.623 600.532C490.652 600.516 492.78 600.5 495.02 600.5C510.994 600.5 515.94 599.706 523.768 598.449C526.732 597.973 530.11 597.431 534.656 596.84ZM336.893 1055.81C338.894 1064.7 341.176 1071.53 343.749 1076.24L343.891 1076.5H344.188H418.235H418.735V1076V1072.26V1072.13L418.672 1072.02C412.285 1060.55 408.921 1043.95 408.628 1022.17C408.628 1022.16 408.628 1022.16 408.628 1022.16L408.628 916.918L408.628 916.909C408.186 891.004 399.127 870.572 381.424 855.672C363.729 840.779 339.653 833.361 309.251 833.361C278.849 833.361 253.763 840.559 234.029 854.991L234.027 854.992C214.425 869.436 204.601 888.259 204.601 911.425V911.925H205.101H279.148H279.648V911.425C279.648 902.862 281.825 896.531 286.091 892.336C290.358 888.139 296.802 885.997 305.516 885.997C314.867 885.997 321.794 888.694 326.396 894.009C331.01 899.338 333.36 907.384 333.36 918.236V930.261H311.009C274.633 930.261 246.829 936.86 227.667 950.125C208.473 963.414 198.888 983.06 198.888 1008.98C198.888 1029.64 206.789 1046.84 222.57 1060.56L222.572 1060.56C238.345 1074.12 257.506 1080.89 280.027 1080.89C304.234 1080.89 323.21 1072.55 336.893 1055.81ZM320.406 1021.31L320.402 1021.31C314.498 1025.2 306.984 1027.16 297.825 1027.16C290.9 1027.16 285.241 1025.14 280.806 1021.14C276.377 1017 274.155 1011.64 274.155 1005.03C274.155 993.549 277.35 985.026 283.657 979.363C289.975 973.692 299.501 970.812 312.327 970.812H333.36V1008.2C330.768 1013.04 326.462 1017.41 320.406 1021.31ZM452.672 1076V1076.5H453.172H527.439H527.939V1076V738.5V738H527.439H453.172H452.672V738.5V1076ZM576.598 1076V1076.5H577.098H651.365H651.865V1076V738.5V738H651.365H577.098H576.598V738.5V1076Z" fill="#3D195B"/>
<path d="M1105.5 499.5H976.053L980.014 136.308C1114.01 246.254 1199.5 413.143 1199.5 600C1199.5 791.556 1109.66 962.128 969.812 1071.88L973.911 696H1105.5H1106V695.5V500V499.5H1105.5ZM600 0.5C667.866 0.5 733.097 11.7768 793.923 32.5584L189.693 503.606L189.5 503.756V504V699.5V700.004L190.004 700L705 696.004V1100.5V1101H705.5H929.362C834.841 1163.27 721.653 1199.5 600 1199.5C268.905 1199.5 0.5 931.095 0.5 600C0.5 268.905 268.905 0.5 600 0.5ZM742.004 477.561L742.996 477.563L776.127 218.243L887.782 114.846L806.573 631H679.902L617.551 348.674L715.122 259.522L742.004 477.561ZM558.529 396.239L616.5 349.545V631H563.588L561.161 614.435L560.989 613.263L560.269 614.204C557.831 617.392 552.631 620.077 545.82 622.29C539.039 624.494 530.768 626.198 522.308 627.49C505.391 630.074 487.788 631 480 631C470.591 631 451.373 630.366 433.136 627.928C424.017 626.709 415.16 625.042 407.903 622.783C400.618 620.515 395.054 617.684 392.397 614.205C381.428 599.837 373.538 579.445 380.479 556.143C387.924 531.151 397.942 520.796 413.736 504.475L413.859 504.348L413.881 504.325L413.9 504.3C416.541 500.778 421.35 497.358 427.445 494.206C433.527 491.061 440.838 488.21 448.428 485.807C463.619 480.996 479.854 478 489.5 478C491.021 478 492.891 477.979 495.026 477.954C503.936 477.852 517.506 477.698 529.923 478.808C536.133 479.363 542.036 480.233 546.914 481.577C551.813 482.926 555.594 484.732 557.651 487.101L558.529 488.111V486.773V396.239ZM534.656 596.84L534.705 596.833L534.751 596.818C536.953 596.077 538.862 595.483 540.562 594.955C541.35 594.71 542.094 594.478 542.801 594.253C545.023 593.544 546.879 592.894 548.571 592.056C551.982 590.367 554.671 587.942 558.431 582.872C560.368 580.26 561.63 576.466 562.265 572.048C562.901 567.62 562.912 562.523 562.313 557.265C561.115 546.76 557.468 535.538 551.395 527.694C545.301 519.822 537.545 516.211 528.498 515.108C519.477 514.007 509.16 515.397 497.908 517.509C486.598 519.631 474.545 524.278 464.749 529.964C459.85 532.807 455.505 535.917 452.096 539.112C448.692 542.301 446.192 545.601 445.03 548.831C442.768 555.112 441.612 560.287 441.605 565.557C441.598 570.826 442.741 576.153 445.028 582.738L445.051 582.806L445.093 582.864C452.071 592.651 458.286 597.099 465.952 599.063C472.185 600.659 479.368 600.604 488.623 600.532C490.652 600.516 492.78 600.5 495.02 600.5C510.994 600.5 515.94 599.706 523.768 598.449C526.732 597.973 530.11 597.431 534.656 596.84ZM336.893 1055.81C338.894 1064.7 341.176 1071.53 343.749 1076.24L343.891 1076.5H344.188H418.235H418.735V1076V1072.26V1072.13L418.672 1072.02C412.285 1060.55 408.921 1043.95 408.628 1022.17C408.628 1022.16 408.628 1022.16 408.628 1022.16L408.628 916.918L408.628 916.909C408.186 891.004 399.127 870.572 381.424 855.672C363.729 840.779 339.653 833.361 309.251 833.361C278.849 833.361 253.763 840.559 234.029 854.991L234.027 854.992C214.425 869.436 204.601 888.259 204.601 911.425V911.925H205.101H279.148H279.648V911.425C279.648 902.862 281.825 896.531 286.091 892.336C290.358 888.139 296.802 885.997 305.516 885.997C314.867 885.997 321.794 888.694 326.396 894.009C331.01 899.338 333.36 907.384 333.36 918.236V930.261H311.009C274.633 930.261 246.829 936.86 227.667 950.125C208.473 963.414 198.888 983.06 198.888 1008.98C198.888 1029.64 206.789 1046.84 222.57 1060.56L222.572 1060.56C238.345 1074.12 257.506 1080.89 280.027 1080.89C304.234 1080.89 323.21 1072.55 336.893 1055.81ZM320.406 1021.31L320.402 1021.31C314.498 1025.2 306.984 1027.16 297.825 1027.16C290.9 1027.16 285.241 1025.14 280.806 1021.14C276.377 1017 274.155 1011.64 274.155 1005.03C274.155 993.549 277.35 985.026 283.657 979.363C289.975 973.692 299.501 970.812 312.327 970.812H333.36V1008.2C330.768 1013.04 326.462 1017.41 320.406 1021.31ZM452.672 1076V1076.5H453.172H527.439H527.939V1076V738.5V738H527.439H453.172H452.672V738.5V1076ZM576.598 1076V1076.5H577.098H651.365H651.865V1076V738.5V738H651.365H577.098H576.598V738.5V1076Z" stroke="black"/>
<path d="M1105.5 499.5H976.053L980.014 136.308C1114.01 246.254 1199.5 413.143 1199.5 600C1199.5 791.556 1109.66 962.128 969.812 1071.88L973.911 696H1105.5H1106V695.5V500V499.5H1105.5ZM600 0.5C667.866 0.5 733.097 11.7768 793.923 32.5584L189.693 503.606L189.5 503.756V504V699.5V700.004L190.004 700L705 696.004V1100.5V1101H705.5H929.362C834.841 1163.27 721.653 1199.5 600 1199.5C268.905 1199.5 0.5 931.095 0.5 600C0.5 268.905 268.905 0.5 600 0.5ZM742.004 477.561L742.996 477.563L776.127 218.243L887.782 114.846L806.573 631H679.902L617.551 348.674L715.122 259.522L742.004 477.561ZM558.529 396.239L616.5 349.545V631H563.588L561.161 614.435L560.989 613.263L560.269 614.204C557.831 617.392 552.631 620.077 545.82 622.29C539.039 624.494 530.768 626.198 522.308 627.49C505.391 630.074 487.788 631 480 631C470.591 631 451.373 630.366 433.136 627.928C424.017 626.709 415.16 625.042 407.903 622.783C400.618 620.515 395.054 617.684 392.397 614.205C381.428 599.837 373.538 579.445 380.479 556.143C387.924 531.151 397.942 520.796 413.736 504.475L413.859 504.348L413.881 504.325L413.9 504.3C416.541 500.778 421.35 497.358 427.445 494.206C433.527 491.061 440.838 488.21 448.428 485.807C463.619 480.996 479.854 478 489.5 478C491.021 478 492.891 477.979 495.026 477.954C503.936 477.852 517.506 477.698 529.923 478.808C536.133 479.363 542.036 480.233 546.914 481.577C551.813 482.926 555.594 484.732 557.651 487.101L558.529 488.111V486.773V396.239ZM534.656 596.84L534.705 596.833L534.751 596.818C536.953 596.077 538.862 595.483 540.562 594.955C541.35 594.71 542.094 594.478 542.801 594.253C545.023 593.544 546.879 592.894 548.571 592.056C551.982 590.367 554.671 587.942 558.431 582.872C560.368 580.26 561.63 576.466 562.265 572.048C562.901 567.62 562.912 562.523 562.313 557.265C561.115 546.76 557.468 535.538 551.395 527.694C545.301 519.822 537.545 516.211 528.498 515.108C519.477 514.007 509.16 515.397 497.908 517.509C486.598 519.631 474.545 524.278 464.749 529.964C459.85 532.807 455.505 535.917 452.096 539.112C448.692 542.301 446.192 545.601 445.03 548.831C442.768 555.112 441.612 560.287 441.605 565.557C441.598 570.826 442.741 576.153 445.028 582.738L445.051 582.806L445.093 582.864C452.071 592.651 458.286 597.099 465.952 599.063C472.185 600.659 479.368 600.604 488.623 600.532C490.652 600.516 492.78 600.5 495.02 600.5C510.994 600.5 515.94 599.706 523.768 598.449C526.732 597.973 530.11 597.431 534.656 596.84ZM336.893 1055.81C338.894 1064.7 341.176 1071.53 343.749 1076.24L343.891 1076.5H344.188H418.235H418.735V1076V1072.26V1072.13L418.672 1072.02C412.285 1060.55 408.921 1043.95 408.628 1022.17C408.628 1022.16 408.628 1022.16 408.628 1022.16L408.628 916.918L408.628 916.909C408.186 891.004 399.127 870.572 381.424 855.672C363.729 840.779 339.653 833.361 309.251 833.361C278.849 833.361 253.763 840.559 234.029 854.991L234.027 854.992C214.425 869.436 204.601 888.259 204.601 911.425V911.925H205.101H279.148H279.648V911.425C279.648 902.862 281.825 896.531 286.091 892.336C290.358 888.139 296.802 885.997 305.516 885.997C314.867 885.997 321.794 888.694 326.396 894.009C331.01 899.338 333.36 907.384 333.36 918.236V930.261H311.009C274.633 930.261 246.829 936.86 227.667 950.125C208.473 963.414 198.888 983.06 198.888 1008.98C198.888 1029.64 206.789 1046.84 222.57 1060.56L222.572 1060.56C238.345 1074.12 257.506 1080.89 280.027 1080.89C304.234 1080.89 323.21 1072.55 336.893 1055.81ZM320.406 1021.31L320.402 1021.31C314.498 1025.2 306.984 1027.16 297.825 1027.16C290.9 1027.16 285.241 1025.14 280.806 1021.14C276.377 1017 274.155 1011.64 274.155 1005.03C274.155 993.549 277.35 985.026 283.657 979.363C289.975 973.692 299.501 970.812 312.327 970.812H333.36V1008.2C330.768 1013.04 326.462 1017.41 320.406 1021.31ZM452.672 1076V1076.5H453.172H527.439H527.939V1076V738.5V738H527.439H453.172H452.672V738.5V1076ZM576.598 1076V1076.5H577.098H651.365H651.865V1076V738.5V738H651.365H577.098H576.598V738.5V1076Z" stroke="url(#paint0_linear)"/>
<defs>
<linearGradient id="paint0_linear" x2="1" gradientUnits="userSpaceOnUse" gradientTransform="translate(1203 -1) scale(1200) rotate(90)">
<stop stop-color="white"/>
<stop offset="1" stop-color="white" stop-opacity="0"/>
</linearGradient>
</defs>
</svg>
